<svg width="36" height="26" viewBox="0 0 36 26" fill="none" xmlns="http://www.w3.org/2000/svg">
<path d="M18.8333 14.65V24H27.0833C30.75 23.6333 33.5 20.5167 33.5 16.6667C33.5 12.6333 30.2 9.33332 26.1667 9.33332H25.9833C25.0667 5.11665 21.4 1.99999 17 1.99999C11.8667 1.99999 7.83333 6.03332 7.83333 11.1667C4.71667 11.5333 2.33333 14.2833 2.33333 17.5833C2.33333 21.0667 5.26667 24 8.75 24H17V14.65L12.7833 18.8667L11.5 17.5833L17.9167 11.1667L24.3333 17.5833L23.05 18.8667L18.8333 14.65ZM18.8333 24V25.8333H17V24H14.25V25.8333H8.75C4.16667 25.8333 0.5 22.1667 0.5 17.5833C0.5 13.9167 2.88333 10.8 6 9.69999C6.73333 4.38332 11.3167 0.166656 17 0.166656C21.7667 0.166656 25.9833 3.28332 27.45 7.49999C31.85 8.04999 35.3333 11.9 35.3333 16.6667C35.3333 21.4333 31.6667 25.2833 27.0833 25.8333H21.5833V24H18.8333Z" fill="black"/>
</svg>
