<svg width="36" height="32" viewBox="0 0 36 32" fill="none" xmlns="http://www.w3.org/2000/svg">
<path d="M32.4074 5.24922H3.59258C1.775 5.24922 0.296875 6.72735 0.296875 8.54492V22.3508C0.296875 24.1684 1.775 25.6465 3.59258 25.6465H13.9695L10.2914 30.1711C9.91758 30.6309 9.98633 31.3098 10.4461 31.6836C10.6438 31.8469 10.8844 31.9242 11.125 31.9242C11.4387 31.9242 11.748 31.7867 11.9586 31.5289L16.7367 25.6508H19.2633L24.0414 31.5289C24.252 31.791 24.5613 31.9242 24.875 31.9242C25.1113 31.9242 25.352 31.8469 25.5539 31.6836C26.0137 31.3098 26.0824 30.6309 25.7086 30.1711L22.0305 25.6465H32.4074C34.225 25.6465 35.7031 24.1684 35.7031 22.3508V8.54063C35.7031 6.72735 34.225 5.24922 32.4074 5.24922V5.24922ZM33.5547 22.3465C33.5547 22.9781 33.0391 23.4938 32.4074 23.4938H3.59258C2.96094 23.4938 2.44531 22.9781 2.44531 22.3465V8.54063C2.44531 7.90899 2.96094 7.39336 3.59258 7.39336H32.4117C33.0434 7.39336 33.559 7.90899 33.559 8.54063V22.3465H33.5547Z" fill="black"/>
<path d="M25.8977 10.8266C25.3992 10.5043 24.7332 10.6461 24.411 11.1445L20.6426 16.9797L15.2114 11.5484C14.9879 11.325 14.6742 11.209 14.3606 11.2391C14.0469 11.2649 13.759 11.4281 13.5742 11.6902L9.81019 17.0012C9.46644 17.4867 9.58245 18.157 10.0637 18.5008C10.545 18.8445 11.2196 18.7285 11.5633 18.2473L14.5926 13.9762L20.0625 19.4375C20.2645 19.6395 20.5395 19.7512 20.8231 19.7512C20.8617 19.7512 20.9004 19.7512 20.9348 19.7469C21.2571 19.7125 21.5492 19.532 21.7254 19.2613L26.2157 12.309C26.5379 11.8106 26.3961 11.1488 25.8977 10.8266V10.8266ZM12.0617 2.23282H23.934C24.527 2.23282 25.0082 1.75157 25.0082 1.1586C25.0082 0.565631 24.527 0.0843811 23.934 0.0843811H12.0617C11.4688 0.0843811 10.9875 0.565631 10.9875 1.1586C10.9875 1.75157 11.4688 2.23282 12.0617 2.23282Z" fill="black"/>
</svg>
