<svg width="36" height="34" viewBox="0 0 36 34" fill="none" xmlns="http://www.w3.org/2000/svg">
<path d="M11.3899 18.8315C11.367 18.8608 11.3441 18.8913 11.3339 18.9283L9.5677 25.4037C9.46454 25.7806 9.57025 26.1868 9.84915 26.4733C10.058 26.6771 10.333 26.7891 10.6259 26.7891C10.7227 26.7891 10.8195 26.7777 10.915 26.7522L17.3444 24.9987C17.3547 24.9987 17.3598 25.0076 17.3674 25.0076C17.4412 25.0076 17.5139 24.9809 17.5686 24.9248L34.761 7.73491C35.2717 7.22367 35.5518 6.5271 35.5518 5.7694C35.5518 4.91049 35.1876 4.05223 34.5496 3.41612L32.926 1.78997C32.2893 1.15196 31.4297 0.78714 30.5714 0.78714C29.8138 0.78714 29.1172 1.06732 28.6053 1.57728L11.4154 18.7717C11.3976 18.7882 11.4027 18.8124 11.3899 18.8315ZM33.0788 6.05147L31.3711 7.75791L28.6027 4.94553L30.2862 3.26205C30.5523 2.99466 31.068 3.03353 31.3737 3.34036L32.9985 4.96655C33.168 5.13592 33.2647 5.36127 33.2647 5.58411C33.2635 5.7669 33.1985 5.93244 33.0788 6.05147ZM14.4474 19.1015L26.853 6.6952L29.6228 9.50946L17.2401 21.8915L14.4474 19.1015ZM12.1871 24.1315L13.0836 20.841L15.475 23.2325L12.1871 24.1315Z" fill="black"/>
<path d="M34.1676 12.8636C33.5169 12.8636 32.9833 13.3927 32.9808 14.0524V30.079C32.9808 30.9194 32.2982 31.602 31.4565 31.602H4.34542C3.50497 31.602 2.81983 30.9195 2.81983 30.079V3.9204C2.81983 3.07925 3.50497 2.39609 4.34542 2.39609H21.8065C22.461 2.39609 22.9921 1.86449 22.9921 1.20986C22.9921 0.556641 22.461 0.0243378 21.8065 0.0243378H4.16461C2.11569 0.0243378 0.44812 1.69063 0.44812 3.74083V30.2598C0.44812 32.31 2.11569 33.9757 4.16461 33.9757H31.636C33.6863 33.9757 35.3532 32.31 35.3532 30.2598V14.0447C35.3505 13.3927 34.8183 12.8636 34.1676 12.8636Z" fill="black"/>
</svg>
